<svg width="144" height="29" viewBox="0 0 144 29" fill="none" xmlns="http://www.w3.org/2000/svg">
<path d="M117.052 12.1418C116.038 12.1418 115.175 12.4967 114.465 13.2068C113.755 13.9167 113.4 14.7787 113.4 15.7932C113.4 16.8073 113.755 17.6699 114.466 18.3799C115.176 19.0897 116.038 19.4446 117.052 19.4446C118.067 19.4446 118.929 19.0897 119.639 18.3799C120.349 17.67 120.704 16.8074 120.704 15.7932C120.704 14.7787 120.349 13.9167 119.639 13.2068C118.929 12.4969 118.066 12.1418 117.052 12.1418Z" fill="#707070"/>
<path d="M117.052 3.84241C116.038 3.84241 115.175 4.19746 114.465 4.90736C113.755 5.61747 113.4 6.47952 113.4 7.49385C113.4 8.50832 113.755 9.37044 114.465 10.0805C115.175 10.7904 116.038 11.1454 117.052 11.1454C118.066 11.1454 118.928 10.7904 119.639 10.0805C120.348 9.37044 120.703 8.50825 120.703 7.49385C120.703 6.47952 120.348 5.61747 119.639 4.90736C118.929 4.19746 118.067 3.84241 117.052 3.84241Z" fill="#707070"/>
<path d="M117.052 20.4409C116.038 20.4409 115.175 20.7957 114.465 21.5055C113.755 22.2158 113.4 23.078 113.4 24.092C113.4 25.1069 113.755 25.9686 114.465 26.6789C115.175 27.3888 116.038 27.7437 117.052 27.7437C118.066 27.7437 118.928 27.3888 119.639 26.6789C120.348 25.9686 120.703 25.1069 120.703 24.092C120.703 23.0779 120.348 22.2153 119.639 21.5055C118.929 20.7957 118.067 20.4409 117.052 20.4409Z" fill="#707070"/>
<path d="M143.054 5.24008C142.947 5.11998 142.821 5.05969 142.675 5.05969H122.227C122.081 5.05969 121.955 5.11978 121.848 5.24008C121.742 5.36079 121.688 5.50315 121.688 5.66795V9.31979C121.688 9.48466 121.742 9.62695 121.848 9.74772C121.955 9.86796 122.081 9.92811 122.227 9.92811H142.675C142.821 9.92811 142.947 9.86816 143.054 9.74772C143.16 9.62702 143.213 9.48466 143.213 9.31979V5.66801C143.213 5.50321 143.16 5.36059 143.054 5.24008Z" fill="#707070"/>
<path d="M142.675 13.3588H122.227C122.081 13.3588 121.955 13.4187 121.848 13.5394C121.742 13.6598 121.688 13.8025 121.688 13.9673V17.619C121.688 17.7837 121.742 17.9263 121.848 18.0467C121.955 18.1675 122.081 18.2275 122.227 18.2275H142.675C142.821 18.2275 142.947 18.1676 143.054 18.0467C143.16 17.9263 143.213 17.7837 143.213 17.619V13.9673C143.213 13.8025 143.16 13.6595 143.054 13.5394C142.947 13.419 142.821 13.3588 142.675 13.3588Z" fill="#707070"/>
<path d="M142.675 21.6577H122.227C122.081 21.6577 121.955 21.7179 121.848 21.8385C121.742 21.959 121.688 22.1016 121.688 22.2661V25.9178C121.688 26.0829 121.742 26.2253 121.848 26.346C121.955 26.4664 122.081 26.5263 122.227 26.5263H142.675C142.821 26.5263 142.947 26.4664 143.054 26.346C143.16 26.2253 143.213 26.0829 143.213 25.9178V22.2661C143.213 22.1016 143.16 21.9586 143.054 21.8385C142.947 21.7183 142.821 21.6577 142.675 21.6577Z" fill="#707070"/>
<path d="M6.15527 11.9561L7.42969 13.2305L6.15527 14.5049L4.88086 13.2305L6.15527 11.9561ZM6.25195 21.6943C7.23047 21.6943 7.98633 21.5332 8.51953 21.2109C9.05859 20.8945 9.43359 20.4756 9.64453 19.9541C9.86133 19.4385 9.96973 18.8848 9.96973 18.293C9.96973 17.5957 9.87598 16.9072 9.68848 16.2275C9.50098 15.5479 9.3252 14.9912 9.16113 14.5576L10.6641 13.9512L11.3145 16.0078C11.4316 16.3828 11.6221 16.667 11.8857 16.8604C12.1553 17.0537 12.5303 17.1504 13.0107 17.1504H13.3535V18.75H13.0459C12.6357 18.75 12.3223 18.7119 12.1055 18.6357C11.8945 18.5596 11.6953 18.4307 11.5078 18.249C11.502 19.2275 11.3145 20.0947 10.9453 20.8506C10.5762 21.6123 10.0049 22.207 9.23145 22.6348C8.46387 23.0625 7.4707 23.2764 6.25195 23.2764C4.98633 23.2764 3.97266 23.0449 3.21094 22.582C2.45508 22.1191 1.90723 21.501 1.56738 20.7275C1.2334 19.96 1.06641 19.1162 1.06641 18.1963C1.06641 17.5752 1.13086 16.9395 1.25977 16.2891C1.38867 15.6328 1.56445 14.9941 1.78711 14.373L3.18457 14.9355C3.01465 15.4746 2.87109 16.0283 2.75391 16.5967C2.63672 17.165 2.57812 17.7158 2.57812 18.249C2.57812 18.8818 2.68945 19.459 2.91211 19.9805C3.14062 20.502 3.52148 20.918 4.05469 21.2285C4.58789 21.5391 5.32031 21.6943 6.25195 21.6943ZM19.1455 18.9521C18.5596 18.9521 18.0176 18.8262 17.5195 18.5742C17.0273 18.3164 16.5146 17.9297 15.9814 17.4141C15.6006 17.8418 15.2344 18.1729 14.8828 18.4072C14.5312 18.6357 14.0361 18.75 13.3975 18.75H13.0107V17.1504H13.3535C13.7461 17.1504 14.0771 17.0391 14.3467 16.8164C14.6162 16.5879 14.8564 16.2949 15.0674 15.9375C15.2783 15.5801 15.4863 15.2021 15.6914 14.8037C15.9023 14.3994 16.1367 14.0186 16.3945 13.6611C16.6523 13.3037 16.9629 13.0137 17.3262 12.791C17.6953 12.5625 18.1494 12.4482 18.6885 12.4482C19.3389 12.4482 19.9043 12.6064 20.3848 12.9229C20.8711 13.2334 21.2461 13.6523 21.5098 14.1797C21.7793 14.707 21.9141 15.2959 21.9141 15.9463C21.9141 16.9014 21.6709 17.6426 21.1846 18.1699C20.7041 18.6914 20.0244 18.9521 19.1455 18.9521ZM18.7236 14.0039C18.4307 14.0039 18.1641 14.1035 17.9238 14.3027C17.6836 14.4961 17.4668 14.748 17.2734 15.0586C17.0801 15.3691 16.9072 15.6914 16.7549 16.0254C17.1064 16.3945 17.4697 16.6963 17.8447 16.9307C18.3252 17.2412 18.7529 17.3965 19.1279 17.3965C19.9951 17.3965 20.4287 16.96 20.4287 16.0869C20.4287 15.4775 20.2764 14.9795 19.9717 14.5928C19.6729 14.2002 19.2568 14.0039 18.7236 14.0039ZM33.6738 23.1885C32.4082 23.1885 31.3945 22.957 30.6328 22.4941C29.877 22.0312 29.3291 21.4131 28.9893 20.6396C28.6553 19.8721 28.4883 19.0283 28.4883 18.1084C28.4883 17.4873 28.5527 16.8516 28.6816 16.2012C28.8105 15.5449 28.9863 14.9062 29.209 14.2852L30.6064 14.8477C30.4365 15.3867 30.293 15.9404 30.1758 16.5088C30.0586 17.0771 30 17.6279 30 18.1611C30 18.7939 30.1113 19.3711 30.334 19.8926C30.5625 20.4141 30.9434 20.8301 31.4766 21.1406C32.0098 21.4512 32.7422 21.6064 33.6738 21.6064C34.5059 21.6064 35.25 21.501 35.9062 21.29C36.5625 21.085 37.0811 20.8154 37.4619 20.4814C37.8428 20.1533 38.0332 19.8047 38.0332 19.4355C38.0332 19.248 37.9775 19.0723 37.8662 18.9082C37.7549 18.7441 37.5527 18.6621 37.2598 18.6621H35.8359C34.9688 18.6621 34.3594 18.4541 34.0078 18.0381C33.6621 17.6162 33.4893 17.0332 33.4893 16.2891C33.4893 15.5156 33.6475 14.8066 33.9639 14.1621C34.2803 13.5117 34.7314 12.9932 35.3174 12.6064C35.9033 12.2197 36.5977 12.0264 37.4004 12.0264C37.7051 12.0264 38.0244 12.0674 38.3584 12.1494C38.6982 12.2314 39.0381 12.3867 39.3779 12.6152L38.877 13.9512C38.4141 13.7168 37.9219 13.5996 37.4004 13.5996C36.6562 13.5996 36.0732 13.8604 35.6514 14.3818C35.2354 14.9033 35.0273 15.5391 35.0273 16.2891C35.0273 16.5645 35.083 16.7666 35.1943 16.8955C35.3057 17.0186 35.5312 17.0801 35.8711 17.0801H37.3477C38.1562 17.0801 38.707 17.2998 39 17.7393C39.2988 18.1729 39.4482 18.7266 39.4482 19.4004C39.4482 20.0508 39.2256 20.6631 38.7803 21.2373C38.335 21.8174 37.6816 22.2861 36.8203 22.6436C35.9648 23.0068 34.916 23.1885 33.6738 23.1885ZM41.6719 6.64746H43.1572V15.0498C43.1572 15.876 43.3096 16.4326 43.6143 16.7197C43.9189 17.0068 44.3789 17.1504 44.9941 17.1504H45.2139V18.75H44.9941C43.875 18.75 43.04 18.4541 42.4893 17.8623C41.9443 17.2646 41.6719 16.3242 41.6719 15.041V6.64746ZM49.7402 11.6133L50.4346 10.3125C52.5381 11.3379 54.1055 12.2549 55.1367 13.0635C56.168 13.8662 56.6836 14.6865 56.6836 15.5244C56.6836 16.5615 56.3613 17.3438 55.7168 17.8711C55.0781 18.3984 54.2197 18.6621 53.1416 18.6621C52.7373 18.6621 52.3066 18.6299 51.8496 18.5654C51.3926 18.501 50.959 18.4219 50.5488 18.3281C50.1387 18.2285 49.793 18.1318 49.5117 18.0381C49.002 18.2256 48.4043 18.3926 47.7188 18.5391C47.0332 18.6797 46.3711 18.75 45.7324 18.75H44.8623V17.1504H45.6182C46.0049 17.1504 46.3447 17.1416 46.6377 17.124C46.9365 17.1064 47.2617 17.0771 47.6133 17.0361C47.209 16.708 46.916 16.3506 46.7344 15.9639C46.5586 15.5713 46.4707 15.167 46.4707 14.751C46.4707 14.1416 46.6143 13.6172 46.9014 13.1777C47.1885 12.7383 47.5693 12.4014 48.0439 12.167C48.5186 11.9268 49.0371 11.8066 49.5996 11.8066C49.8516 11.8066 50.1035 11.8389 50.3555 11.9033C50.1562 11.8096 49.9512 11.7129 49.7402 11.6133ZM51.3311 17.0713C51.5889 17.1006 51.8701 17.1299 52.1748 17.1592C52.4795 17.1826 52.749 17.1943 52.9834 17.1943C53.6924 17.1943 54.2314 17.0625 54.6006 16.7988C54.9756 16.5293 55.1631 16.1133 55.1631 15.5508C55.1631 15.2637 54.999 14.9531 54.6709 14.6191C54.3428 14.2793 53.9033 13.9307 53.3525 13.5732C52.8076 13.21 52.2041 12.8525 51.542 12.501C51.8643 12.7588 52.1221 13.0693 52.3154 13.4326C52.5146 13.7959 52.6143 14.1797 52.6143 14.584C52.6143 15.1348 52.5029 15.6064 52.2803 15.999C52.0635 16.3857 51.7471 16.7432 51.3311 17.0713ZM47.9824 14.7334C47.9824 15.0791 48.126 15.4248 48.4131 15.7705C48.7061 16.1104 49.1279 16.3857 49.6787 16.5967C50.7334 16.1689 51.2607 15.5537 51.2607 14.751C51.2607 14.2412 51.1055 13.8545 50.7949 13.5908C50.4902 13.3213 50.1211 13.1865 49.6875 13.1865C49.1836 13.1865 48.7734 13.3271 48.457 13.6084C48.1406 13.8896 47.9824 14.2646 47.9824 14.7334ZM65.3848 12.2461L65.042 11.9385L65.9736 10.7344C66.7471 11.373 67.4268 11.9707 68.0127 12.5273C68.6045 13.0781 69.0674 13.6201 69.4014 14.1533C69.7354 14.6807 69.9023 15.2285 69.9023 15.7969C69.9023 16.6875 69.5977 17.3965 68.9883 17.9238C68.3789 18.4512 67.5762 18.7148 66.5801 18.7148C65.5605 18.7148 64.752 18.4658 64.1543 17.9678C63.5566 17.4639 63.2578 16.8252 63.2578 16.0518C63.2578 15.3721 63.4395 14.7393 63.8027 14.1533C64.166 13.5615 64.6934 12.9258 65.3848 12.2461ZM68.4082 15.7266C68.4082 15.457 68.3086 15.1816 68.1094 14.9004C67.916 14.6133 67.6699 14.3291 67.3711 14.0479C67.0781 13.7607 66.7793 13.4854 66.4746 13.2217C65.9355 13.7373 65.5137 14.2002 65.209 14.6104C64.9043 15.0146 64.752 15.4395 64.752 15.8848C64.752 16.2246 64.8955 16.5205 65.1826 16.7725C65.4697 17.0244 65.9326 17.1504 66.5713 17.1504C67.2158 17.1504 67.6816 17.0332 67.9688 16.7988C68.2617 16.5645 68.4082 16.207 68.4082 15.7266ZM69.7793 23.4785L69.2607 22.0811C70.6904 21.7705 71.6982 21.2256 72.2842 20.4463C72.8701 19.6729 73.1631 18.7559 73.1631 17.6953C73.1631 17.1973 73.1074 16.6758 72.9961 16.1309C72.8906 15.5801 72.7412 15.0205 72.5479 14.4521L74.0068 13.96C74.4287 15.1611 74.6396 16.3184 74.6396 17.4316C74.6396 18.4102 74.4668 19.3154 74.1211 20.1475C73.7812 20.9854 73.251 21.6943 72.5303 22.2744C71.8154 22.8604 70.8984 23.2617 69.7793 23.4785ZM82.6641 17.2471C82.6641 20.6689 80.7861 22.7402 77.0303 23.4609L76.5117 22.0635C77.8594 21.8057 78.9346 21.375 79.7373 20.7715C80.54 20.1738 81.0146 19.4209 81.1611 18.5127C80.9385 18.583 80.6807 18.6445 80.3877 18.6973C80.0947 18.75 79.8369 18.7764 79.6143 18.7764C77.4756 18.7764 76.4062 17.8682 76.4062 16.0518C76.4062 15.6182 76.4707 15.1846 76.5996 14.751C76.7344 14.3115 76.9277 13.9102 77.1797 13.5469C77.4375 13.1777 77.751 12.8818 78.1201 12.6592C78.4893 12.4365 78.9082 12.3252 79.377 12.3252C79.9336 12.3252 80.417 12.4629 80.8271 12.7383C81.2432 13.0137 81.5859 13.3857 81.8555 13.8545C82.125 14.3232 82.3271 14.8506 82.4619 15.4365C82.5967 16.0225 82.6641 16.626 82.6641 17.2471ZM79.6582 17.1855C80.1738 17.1855 80.6865 17.1094 81.1963 16.957C81.1377 15.9727 80.9561 15.2197 80.6514 14.6982C80.3467 14.1709 79.916 13.9072 79.3594 13.9072C78.9727 13.9072 78.6709 14.0273 78.4541 14.2676C78.2432 14.5078 78.0938 14.792 78.0059 15.1201C77.9238 15.4424 77.8828 15.7354 77.8828 15.999C77.8828 16.4268 78.0293 16.7314 78.3223 16.9131C78.6152 17.0947 79.0605 17.1855 79.6582 17.1855ZM86.3994 17.168C88.6494 17.168 89.7744 16.585 89.7744 15.4189C89.7744 14.8682 89.4932 14.2852 88.9307 13.6699C88.3682 13.0547 87.4365 12.3926 86.1357 11.6836L86.8301 10.2949C88.3359 11.0625 89.4521 11.874 90.1787 12.7295C90.9111 13.5791 91.2773 14.4668 91.2773 15.3926C91.2773 16.4941 90.8965 17.3262 90.1348 17.8887C89.3789 18.4512 88.1777 18.7324 86.5312 18.7324C85.7461 18.7324 85.0371 18.6621 84.4043 18.5215V16.9307C85.1719 17.0889 85.8369 17.168 86.3994 17.168Z" fill="#707070"/>
</svg>
