<svg width="31" height="25" viewBox="0 0 31 25" fill="none" xmlns="http://www.w3.org/2000/svg">
<path d="M29.468 10.5234H1.1456C0.943878 10.5234 0.769135 10.5729 0.621613 10.672C0.474228 10.771 0.400391 10.8881 0.400391 11.0233V14.0235C0.400391 14.1591 0.474228 14.2762 0.621613 14.3753C0.769196 14.4742 0.943954 14.5234 1.1456 14.5234H29.468C29.6701 14.5234 29.8445 14.4742 29.9923 14.3753C30.1399 14.2762 30.2134 14.1591 30.2134 14.0235V11.0233C30.2134 10.8881 30.1397 10.7706 29.9923 10.672C29.8443 10.5732 29.67 10.5234 29.468 10.5234Z" fill="#707070"/>
<path d="M29.468 20.2968H1.1456C0.943878 20.2968 0.769135 20.3462 0.621613 20.4453C0.474228 20.5443 0.400391 20.6614 0.400391 20.7966V23.7968C0.400391 23.9325 0.474228 24.0495 0.621613 24.1486C0.769196 24.2475 0.943954 24.2968 1.1456 24.2968H29.468C29.6701 24.2968 29.8445 24.2475 29.9923 24.1486C30.1399 24.0495 30.2134 23.9325 30.2134 23.7968V20.7966C30.2134 20.6614 30.1397 20.5439 29.9923 20.4453C29.8443 20.3465 29.67 20.2968 29.468 20.2968Z" fill="#707070"/>
<path d="M29.468 0.75H1.1456C0.943878 0.75 0.769135 0.799438 0.621613 0.898529C0.474228 0.997559 0.400391 1.11469 0.400391 1.24991V4.25012C0.400391 4.38571 0.474228 4.50275 0.621613 4.6019C0.769196 4.70074 0.943954 4.75 1.1456 4.75H29.468C29.6701 4.75 29.8445 4.70074 29.9923 4.6019C30.1399 4.50275 30.2134 4.38571 30.2134 4.25012V1.24991C30.2134 1.11469 30.1397 0.997223 29.9923 0.898529C29.8443 0.799805 29.67 0.75 29.468 0.75Z" fill="#707070"/>
</svg>
