<svg width="30" height="30" viewBox="0 0 30 30" fill="none" xmlns="http://www.w3.org/2000/svg">
<path d="M22.9201 6.89446C23.165 7.26844 23.1389 7.75378 22.8667 8.10841C19.988 11.858 15.6336 14.9626 11.2793 14.9626C7.16843 14.9626 3.83594 11.6302 3.83594 7.51926C3.83594 3.40842 7.16843 0.0759277 11.2793 0.0759277C15.6198 0.0759277 20.4745 3.16078 22.9201 6.89446Z" fill="#C200BC"/>
<path d="M26.3489 20.877C26.1253 21.1006 25.7627 21.1006 25.5392 20.877L21.0857 16.4235C20.8621 16.2 20.8621 15.8374 21.0857 15.6138L23.9659 12.7337C24.1895 12.51 24.552 12.51 24.7756 12.7337L29.2292 17.1871C29.4527 17.4107 29.4527 17.7732 29.2292 17.9969L26.3489 20.877Z" fill="#C200BC"/>
<path d="M12.1075 25.0787C12.1043 24.7708 12.2251 24.4745 12.4429 24.2568L19.1409 17.5588C19.3645 17.3352 19.7271 17.3352 19.9506 17.5588L24.4041 22.0123C24.6277 22.2359 24.6277 22.5985 24.4041 22.822L21.2738 25.9523L18.0533 29.1729C17.8509 29.3752 17.5801 29.4945 17.294 29.5071L12.275 29.7284C12.2103 29.7312 12.1562 29.6799 12.1555 29.6151L12.1075 25.0787Z" fill="#C200BC"/>
<path d="M17.2903 17.2529H4.9809C2.45115 17.2529 0.400391 19.3045 0.400391 21.8342V22.1953C0.400391 23.087 0.588626 23.9799 1.0672 24.7323C3.08171 27.8998 6.05873 29.311 10.8157 29.8355C10.8833 29.8429 10.9435 29.79 10.9435 29.722V24.043C10.9435 23.729 11.0724 23.4287 11.3001 23.2125L17.3692 17.4505C17.4442 17.3792 17.3939 17.2529 17.2903 17.2529Z" fill="#C200BC"/>
</svg>
