<svg width="31" height="30" viewBox="0 0 31 30" fill="none" xmlns="http://www.w3.org/2000/svg">
<path d="M12.7762 0C6.12162 0 0.700195 5.42142 0.700195 12.076C0.700195 18.7306 6.12162 24.1521 12.7762 24.1521C15.6548 24.1521 18.301 23.1352 20.3791 21.4454L28.5496 29.6159C28.8629 29.9422 29.3282 30.0737 29.766 29.9596C30.2038 29.8454 30.5456 29.5036 30.6598 29.0658C30.7739 28.628 30.6424 28.1627 30.3161 27.8494L22.1456 19.6789C23.8354 17.6008 24.8523 14.9546 24.8523 12.076C24.8523 5.42142 19.4308 0 12.7762 0ZM12.7762 2.49849C18.0806 2.49849 22.3538 6.7717 22.3538 12.076C22.3538 14.66 21.3345 16.9945 19.6812 18.7143C19.5793 18.7892 19.4894 18.8791 19.4145 18.981C17.6947 20.6344 15.3602 21.6536 12.7762 21.6536C7.47187 21.6536 3.19866 17.3804 3.19866 12.0761C3.19866 6.77172 7.47189 2.49849 12.7762 2.49849Z" fill="#5A0BA9"/>
</svg>
