<svg width="31" height="31" viewBox="0 0 31 31" fill="none" xmlns="http://www.w3.org/2000/svg">
<path d="M15.3069 0.256836C14.9452 0.256836 14.5982 0.424509 14.3437 0.722481L0.67566 14.5321C0.502564 14.68 0.400403 14.9142 0.400391 15.1633C0.400391 15.5966 0.703748 15.9479 1.07796 15.9479H4.4658V28.5007C4.4658 29.3669 5.0729 30.0698 5.82093 30.0698H11.2415C11.9895 30.0698 12.5966 29.3669 12.5966 28.5007V19.0861H18.0172V28.5007C18.0172 29.3669 18.6243 30.0698 19.3723 30.0698H24.7928C25.5409 30.0698 26.148 29.3669 26.148 28.5007V15.9479H29.5358C29.91 15.9479 30.2134 15.5966 30.2134 15.1633C30.2134 14.9143 30.1112 14.68 29.9382 14.5321L16.2782 0.731851C16.2756 0.728779 16.2729 0.725719 16.2703 0.722672C16.0157 0.42465 15.6688 0.256908 15.3069 0.256836Z" fill="#707070"/>
</svg>
