<svg width="31" height="25" viewBox="0 0 31 25" fill="none" xmlns="http://www.w3.org/2000/svg">
<path d="M4.05204 9.14185C3.03751 9.14185 2.17545 9.4967 1.46528 10.2068C0.755443 10.9167 0.400391 11.7787 0.400391 12.7932C0.400391 13.8073 0.755443 14.6699 1.46555 15.3799C2.17565 16.0897 3.0379 16.4446 4.0523 16.4446C5.0665 16.4446 5.92862 16.0897 6.63879 15.3799C7.3487 14.67 7.70375 13.8074 7.70375 12.7932C7.70375 11.7787 7.3487 10.9167 6.63859 10.2068C5.92862 9.49692 5.06643 9.14185 4.05204 9.14185Z" fill="#707070"/>
<path d="M4.05204 0.842407C3.0375 0.842407 2.17545 1.19746 1.46528 1.90736C0.755443 2.61747 0.400391 3.47952 0.400391 4.49385C0.400391 5.50832 0.755243 6.37044 1.46528 7.08054C2.17539 7.79045 3.03764 8.14536 4.05204 8.14536C5.06623 8.14536 5.92835 7.79038 6.63852 7.08054C7.34843 6.37044 7.70348 5.50825 7.70348 4.49385C7.70348 3.47952 7.34843 2.61747 6.63852 1.90736C5.92869 1.19746 5.06657 0.842407 4.05204 0.842407Z" fill="#707070"/>
<path d="M4.05204 17.4409C3.0375 17.4409 2.17519 17.7957 1.46528 18.5055C0.755443 19.2158 0.400391 20.078 0.400391 21.092C0.400391 22.1069 0.755243 22.9686 1.46528 23.6789C2.17539 24.3888 3.03764 24.7437 4.05204 24.7437C5.06623 24.7437 5.92835 24.3888 6.63852 23.6789C7.34843 22.9686 7.70348 22.1069 7.70348 21.092C7.70348 20.0779 7.34843 19.2153 6.63852 18.5055C5.92869 17.7957 5.06657 17.4409 4.05204 17.4409Z" fill="#707070"/>
<path d="M30.0535 2.24008C29.9467 2.11998 29.8209 2.05969 29.675 2.05969H9.22652C9.08087 2.05969 8.95471 2.11978 8.84821 2.24008C8.74179 2.36079 8.68848 2.50315 8.68848 2.66795V6.31979C8.68848 6.48466 8.74179 6.62695 8.84821 6.74772C8.95476 6.86796 9.08093 6.92811 9.22652 6.92811H29.675C29.8209 6.92811 29.9469 6.86816 30.0535 6.74772C30.1601 6.62702 30.2131 6.48466 30.2131 6.31979V2.66801C30.2131 2.50321 30.1599 2.36059 30.0535 2.24008Z" fill="#707070"/>
<path d="M29.675 10.3588H9.22652C9.08087 10.3588 8.95471 10.4187 8.84821 10.5394C8.74179 10.6598 8.68848 10.8025 8.68848 10.9673V14.619C8.68848 14.7837 8.74179 14.9263 8.84821 15.0467C8.95476 15.1675 9.08093 15.2275 9.22652 15.2275H29.675C29.8209 15.2275 29.9469 15.1676 30.0535 15.0467C30.1601 14.9263 30.2131 14.7837 30.2131 14.619V10.9673C30.2131 10.8025 30.1599 10.6595 30.0535 10.5394C29.9467 10.419 29.8209 10.3588 29.675 10.3588Z" fill="#707070"/>
<path d="M29.675 18.6577H9.22652C9.08087 18.6577 8.95471 18.7179 8.84821 18.8385C8.74179 18.959 8.68848 19.1016 8.68848 19.2661V22.9178C8.68848 23.0829 8.74179 23.2253 8.84821 23.346C8.95476 23.4664 9.08093 23.5263 9.22652 23.5263H29.675C29.8209 23.5263 29.9469 23.4664 30.0535 23.346C30.1601 23.2253 30.2131 23.0829 30.2131 22.9178V19.2661C30.2131 19.1016 30.1599 18.9586 30.0535 18.8385C29.9467 18.7183 29.8209 18.6577 29.675 18.6577Z" fill="#707070"/>
</svg>
