<svg width="31" height="30" viewBox="0 0 31 30" fill="none" xmlns="http://www.w3.org/2000/svg">
<path d="M9.69922 23.8714C8.04172 23.8714 6.71422 25.2067 6.71422 26.8553C6.71422 28.504 8.04172 29.8393 9.69922 29.8393C11.3567 29.8393 12.6992 28.504 12.6992 26.8553C12.6992 25.2067 11.3567 23.8714 9.69922 23.8714ZM0.699219 0V2.98393H3.69922L9.09172 14.3005L7.06672 17.9558C6.83422 18.3884 6.69922 18.8733 6.69922 19.3955C6.69922 21.0441 8.04172 22.3794 9.69922 22.3794H27.6992V19.3955H10.3367C10.1267 19.3955 9.96172 19.2314 9.96172 19.0225C9.96172 18.9554 9.97672 18.8957 10.0067 18.8435L11.3492 16.4116H22.5242C23.6492 16.4116 24.6317 15.7924 25.1492 14.8749L30.5117 5.19203C30.6317 4.98316 30.6992 4.73698 30.6992 4.47589C30.6992 3.64785 30.0242 2.98393 29.1992 2.98393H7.02172L5.59672 4.76837e-07L0.699219 0ZM24.6992 23.8714C23.0417 23.8714 21.7142 25.2067 21.7142 26.8553C21.7142 28.504 23.0417 29.8393 24.6992 29.8393C26.3567 29.8393 27.6992 28.504 27.6992 26.8553C27.6992 25.2067 26.3567 23.8714 24.6992 23.8714Z" fill="#5A0BA9"/>
</svg>
