<svg width="36" height="29" viewBox="0 0 36 29" fill="none" xmlns="http://www.w3.org/2000/svg">
<path d="M13.2466 14.0005C17.1131 14.0005 20.2468 10.8668 20.2468 7.00027C20.2468 3.13372 17.1131 0 13.2466 0C9.38001 0 6.2463 3.13372 6.2463 7.00027C6.2463 10.8668 9.38002 14.0005 13.2466 14.0005ZM18.1468 15.7506H17.2334C16.0193 16.3084 14.6685 16.6257 13.2466 16.6257C11.8246 16.6257 10.4793 16.3084 9.2597 15.7506H8.34638C4.28841 15.7506 0.996094 19.0429 0.996094 23.1009V25.376C0.996094 26.8253 2.17192 28.0011 3.6212 28.0011H18.6554C18.5241 27.6292 18.4694 27.2354 18.5132 26.8362L18.8851 23.5056L18.9507 22.8986L19.3827 22.4665L23.6103 18.239C22.2704 16.7241 20.3289 15.7506 18.1468 15.7506ZM20.6242 23.697L20.2523 27.0331C20.1922 27.5909 20.6625 28.0613 21.2149 27.9956L24.5455 27.6237L32.0872 20.082L28.1659 16.1608L20.6242 23.697ZM35.6146 14.706L33.5419 12.6333C33.0333 12.1247 32.202 12.1247 31.6934 12.6333L29.6261 14.7006L29.4019 14.9248L33.3286 18.846L35.6146 16.56C36.1232 16.0459 36.1232 15.2201 35.6146 14.706Z" fill="#707070"/>
</svg>
