<svg width="31" height="25" viewBox="0 0 31 25" fill="none" xmlns="http://www.w3.org/2000/svg">
<path d="M19.9656 17.6087V23.5761C19.9656 24.2935 19.4439 24.8804 18.7265 24.8804H1.70474C0.987347 24.8804 0.400391 24.2935 0.400391 23.5761V2.05435C0.400391 1.33696 0.987347 0.75 1.70474 0.75H18.7265C19.4439 0.75 19.9656 1.33696 19.9656 2.05435V8.02174C19.9656 8.73913 19.3787 9.32609 18.6613 9.32609C17.9439 9.32609 17.3569 8.73913 17.3569 8.02174V3.3587H3.00909V22.2717H17.3569V17.6087C17.3569 16.8913 17.9439 16.3043 18.6613 16.3043C19.3787 16.3043 19.9656 16.8913 19.9656 17.6087ZM30.0091 11.837L24.9221 6.68478C24.4004 6.16304 23.5852 6.16304 23.0634 6.68478C22.5417 7.20652 22.5417 8.02174 23.0634 8.54348L25.9656 11.4783L10.1504 11.5109C9.433 11.5109 8.84604 12.0978 8.84604 12.8152C8.84604 13.5326 9.433 14.1196 10.1504 14.1196L25.9656 14.087L23.0634 17.0217C22.5417 17.5435 22.5743 18.3587 23.0634 18.8804C23.3243 19.1413 23.6504 19.2717 23.9765 19.2717C24.3026 19.2717 24.6613 19.1413 24.8895 18.8804L30.0091 13.7283C30.5308 13.1739 30.5308 12.3587 30.0091 11.837Z" fill="#707070"/>
</svg>
